<mxfile host="app.diagrams.net" modified="2022-10-24T16:09:47.534Z" agent="5.0 (Windows)" etag="YyD-amMnwYnIsYBW72zb" version="20.3.6" type="github">
  <diagram id="R2lEEEUBdFMjLlhIrx00" name="Page-1">
    <mxGraphModel dx="1418" dy="3487" grid="1" gridSize="10" guides="1" tooltips="1" connect="1" arrows="1" fold="1" page="1" pageScale="1" pageWidth="850" pageHeight="1100" math="0" shadow="0" extFonts="Permanent Marker^https://fonts.googleapis.com/css?family=Permanent+Marker">
      <root>
        <mxCell id="0" />
        <mxCell id="1" parent="0" />
        <mxCell id="kwqhG4PS2v1R5lWYLXFU-1" value="MUSICIAN" style="rounded=0;whiteSpace=wrap;html=1;" vertex="1" parent="1">
          <mxGeometry x="260" y="-840" width="120" height="60" as="geometry" />
        </mxCell>
        <mxCell id="kwqhG4PS2v1R5lWYLXFU-4" value="name" style="ellipse;whiteSpace=wrap;html=1;" vertex="1" parent="1">
          <mxGeometry x="60" y="-1010" width="120" height="80" as="geometry" />
        </mxCell>
        <mxCell id="kwqhG4PS2v1R5lWYLXFU-5" value="&lt;u&gt;ssn&lt;/u&gt;" style="ellipse;whiteSpace=wrap;html=1;" vertex="1" parent="1">
          <mxGeometry x="240" y="-1090" width="120" height="80" as="geometry" />
        </mxCell>
        <mxCell id="kwqhG4PS2v1R5lWYLXFU-7" value="PLAYS" style="rhombus;whiteSpace=wrap;html=1;" vertex="1" parent="1">
          <mxGeometry x="280" y="-660" width="80" height="80" as="geometry" />
        </mxCell>
        <mxCell id="kwqhG4PS2v1R5lWYLXFU-8" value="iNSTRUMENTS" style="rounded=0;whiteSpace=wrap;html=1;" vertex="1" parent="1">
          <mxGeometry x="260" y="-460" width="120" height="60" as="geometry" />
        </mxCell>
        <mxCell id="kwqhG4PS2v1R5lWYLXFU-11" value="musical_key" style="ellipse;whiteSpace=wrap;html=1;" vertex="1" parent="1">
          <mxGeometry x="425" y="-250" width="120" height="80" as="geometry" />
        </mxCell>
        <mxCell id="kwqhG4PS2v1R5lWYLXFU-12" value="&lt;u&gt;id&lt;/u&gt;" style="ellipse;whiteSpace=wrap;html=1;" vertex="1" parent="1">
          <mxGeometry x="240" y="-210" width="120" height="80" as="geometry" />
        </mxCell>
        <mxCell id="kwqhG4PS2v1R5lWYLXFU-13" value="name" style="ellipse;whiteSpace=wrap;html=1;" vertex="1" parent="1">
          <mxGeometry x="60" y="-280" width="120" height="80" as="geometry" />
        </mxCell>
        <mxCell id="kwqhG4PS2v1R5lWYLXFU-14" value="p_number" style="ellipse;whiteSpace=wrap;html=1;" vertex="1" parent="1">
          <mxGeometry x="50" y="-810" width="120" height="80" as="geometry" />
        </mxCell>
        <mxCell id="kwqhG4PS2v1R5lWYLXFU-15" value="LIVES" style="rhombus;whiteSpace=wrap;html=1;" vertex="1" parent="1">
          <mxGeometry x="500" y="-1050" width="80" height="80" as="geometry" />
        </mxCell>
        <mxCell id="kwqhG4PS2v1R5lWYLXFU-16" value="HOME" style="rounded=0;whiteSpace=wrap;html=1;" vertex="1" parent="1">
          <mxGeometry x="620" y="-1230" width="120" height="60" as="geometry" />
        </mxCell>
        <mxCell id="kwqhG4PS2v1R5lWYLXFU-17" value="&lt;u&gt;p_number&lt;/u&gt;" style="ellipse;whiteSpace=wrap;html=1;" vertex="1" parent="1">
          <mxGeometry x="760" y="-1420" width="120" height="80" as="geometry" />
        </mxCell>
        <mxCell id="kwqhG4PS2v1R5lWYLXFU-18" value="address" style="ellipse;whiteSpace=wrap;html=1;" vertex="1" parent="1">
          <mxGeometry x="490" y="-1420" width="120" height="80" as="geometry" />
        </mxCell>
        <mxCell id="kwqhG4PS2v1R5lWYLXFU-19" value="" style="endArrow=none;html=1;rounded=0;exitX=1;exitY=0.5;exitDx=0;exitDy=0;entryX=0;entryY=0.75;entryDx=0;entryDy=0;" edge="1" parent="1" source="kwqhG4PS2v1R5lWYLXFU-14" target="kwqhG4PS2v1R5lWYLXFU-1">
          <mxGeometry width="50" height="50" relative="1" as="geometry">
            <mxPoint x="380" y="-710" as="sourcePoint" />
            <mxPoint x="430" y="-760" as="targetPoint" />
          </mxGeometry>
        </mxCell>
        <mxCell id="kwqhG4PS2v1R5lWYLXFU-20" value="" style="endArrow=none;html=1;rounded=0;exitX=0;exitY=0;exitDx=0;exitDy=0;" edge="1" parent="1" source="kwqhG4PS2v1R5lWYLXFU-1" target="kwqhG4PS2v1R5lWYLXFU-4">
          <mxGeometry width="50" height="50" relative="1" as="geometry">
            <mxPoint x="210" y="-850" as="sourcePoint" />
            <mxPoint x="180" y="-960" as="targetPoint" />
          </mxGeometry>
        </mxCell>
        <mxCell id="kwqhG4PS2v1R5lWYLXFU-21" value="" style="endArrow=none;html=1;rounded=0;entryX=0.5;entryY=1;entryDx=0;entryDy=0;exitX=0.5;exitY=0;exitDx=0;exitDy=0;" edge="1" parent="1" source="kwqhG4PS2v1R5lWYLXFU-1" target="kwqhG4PS2v1R5lWYLXFU-5">
          <mxGeometry width="50" height="50" relative="1" as="geometry">
            <mxPoint x="400" y="-690" as="sourcePoint" />
            <mxPoint x="450" y="-740" as="targetPoint" />
          </mxGeometry>
        </mxCell>
        <mxCell id="kwqhG4PS2v1R5lWYLXFU-22" value="" style="endArrow=none;html=1;rounded=0;entryX=1;entryY=0;entryDx=0;entryDy=0;exitX=0;exitY=1;exitDx=0;exitDy=0;" edge="1" parent="1" source="kwqhG4PS2v1R5lWYLXFU-15" target="kwqhG4PS2v1R5lWYLXFU-1">
          <mxGeometry width="50" height="50" relative="1" as="geometry">
            <mxPoint x="410" y="-680" as="sourcePoint" />
            <mxPoint x="460" y="-730" as="targetPoint" />
          </mxGeometry>
        </mxCell>
        <mxCell id="kwqhG4PS2v1R5lWYLXFU-23" value="" style="endArrow=none;html=1;rounded=0;exitX=0.79;exitY=0.283;exitDx=0;exitDy=0;exitPerimeter=0;" edge="1" parent="1" source="kwqhG4PS2v1R5lWYLXFU-15" target="kwqhG4PS2v1R5lWYLXFU-16">
          <mxGeometry width="50" height="50" relative="1" as="geometry">
            <mxPoint x="420" y="-670" as="sourcePoint" />
            <mxPoint x="470" y="-720" as="targetPoint" />
          </mxGeometry>
        </mxCell>
        <mxCell id="kwqhG4PS2v1R5lWYLXFU-24" value="" style="endArrow=none;html=1;rounded=0;entryX=0.5;entryY=1;entryDx=0;entryDy=0;" edge="1" parent="1" source="kwqhG4PS2v1R5lWYLXFU-7" target="kwqhG4PS2v1R5lWYLXFU-1">
          <mxGeometry width="50" height="50" relative="1" as="geometry">
            <mxPoint x="430" y="-660" as="sourcePoint" />
            <mxPoint x="480" y="-710" as="targetPoint" />
          </mxGeometry>
        </mxCell>
        <mxCell id="kwqhG4PS2v1R5lWYLXFU-25" value="" style="endArrow=none;html=1;rounded=0;entryX=0.5;entryY=1;entryDx=0;entryDy=0;exitX=0.5;exitY=0;exitDx=0;exitDy=0;" edge="1" parent="1" source="kwqhG4PS2v1R5lWYLXFU-8" target="kwqhG4PS2v1R5lWYLXFU-7">
          <mxGeometry width="50" height="50" relative="1" as="geometry">
            <mxPoint x="440" y="-650" as="sourcePoint" />
            <mxPoint x="490" y="-700" as="targetPoint" />
          </mxGeometry>
        </mxCell>
        <mxCell id="kwqhG4PS2v1R5lWYLXFU-26" value="" style="endArrow=none;html=1;rounded=0;entryX=0;entryY=1;entryDx=0;entryDy=0;" edge="1" parent="1" source="kwqhG4PS2v1R5lWYLXFU-13" target="kwqhG4PS2v1R5lWYLXFU-8">
          <mxGeometry width="50" height="50" relative="1" as="geometry">
            <mxPoint x="450" y="-640" as="sourcePoint" />
            <mxPoint x="500" y="-690" as="targetPoint" />
          </mxGeometry>
        </mxCell>
        <mxCell id="kwqhG4PS2v1R5lWYLXFU-27" value="" style="endArrow=none;html=1;rounded=0;exitX=0.5;exitY=1;exitDx=0;exitDy=0;" edge="1" parent="1" source="kwqhG4PS2v1R5lWYLXFU-8" target="kwqhG4PS2v1R5lWYLXFU-12">
          <mxGeometry width="50" height="50" relative="1" as="geometry">
            <mxPoint x="460" y="-630" as="sourcePoint" />
            <mxPoint x="510" y="-680" as="targetPoint" />
          </mxGeometry>
        </mxCell>
        <mxCell id="kwqhG4PS2v1R5lWYLXFU-28" value="" style="endArrow=none;html=1;rounded=0;" edge="1" parent="1" source="kwqhG4PS2v1R5lWYLXFU-8" target="kwqhG4PS2v1R5lWYLXFU-11">
          <mxGeometry width="50" height="50" relative="1" as="geometry">
            <mxPoint x="470" y="-620" as="sourcePoint" />
            <mxPoint x="520" y="-670" as="targetPoint" />
          </mxGeometry>
        </mxCell>
        <mxCell id="kwqhG4PS2v1R5lWYLXFU-29" value="" style="endArrow=none;html=1;rounded=0;" edge="1" parent="1" source="kwqhG4PS2v1R5lWYLXFU-16" target="kwqhG4PS2v1R5lWYLXFU-18">
          <mxGeometry width="50" height="50" relative="1" as="geometry">
            <mxPoint x="480" y="-610" as="sourcePoint" />
            <mxPoint x="530" y="-660" as="targetPoint" />
          </mxGeometry>
        </mxCell>
        <mxCell id="kwqhG4PS2v1R5lWYLXFU-30" value="" style="endArrow=none;html=1;rounded=0;" edge="1" parent="1" source="kwqhG4PS2v1R5lWYLXFU-16" target="kwqhG4PS2v1R5lWYLXFU-17">
          <mxGeometry width="50" height="50" relative="1" as="geometry">
            <mxPoint x="490" y="-600" as="sourcePoint" />
            <mxPoint x="540" y="-650" as="targetPoint" />
          </mxGeometry>
        </mxCell>
        <mxCell id="kwqhG4PS2v1R5lWYLXFU-33" value="&lt;b&gt;(1,1)&lt;/b&gt;" style="text;html=1;align=center;verticalAlign=middle;resizable=0;points=[];autosize=1;strokeColor=none;fillColor=none;" vertex="1" parent="1">
          <mxGeometry x="435" y="-975" width="50" height="30" as="geometry" />
        </mxCell>
        <mxCell id="kwqhG4PS2v1R5lWYLXFU-34" value="&lt;b&gt;(1,N)&lt;/b&gt;" style="text;html=1;align=center;verticalAlign=middle;resizable=0;points=[];autosize=1;strokeColor=none;fillColor=none;" vertex="1" parent="1">
          <mxGeometry x="565" y="-1135" width="50" height="30" as="geometry" />
        </mxCell>
        <mxCell id="kwqhG4PS2v1R5lWYLXFU-35" value="&lt;b&gt;(1,N)&lt;/b&gt;" style="text;html=1;align=center;verticalAlign=middle;resizable=0;points=[];autosize=1;strokeColor=none;fillColor=none;" vertex="1" parent="1">
          <mxGeometry x="315" y="-715" width="50" height="30" as="geometry" />
        </mxCell>
        <mxCell id="kwqhG4PS2v1R5lWYLXFU-36" value="&lt;b&gt;(1,N)&lt;/b&gt;" style="text;html=1;align=center;verticalAlign=middle;resizable=0;points=[];autosize=1;strokeColor=none;fillColor=none;" vertex="1" parent="1">
          <mxGeometry x="325" y="-530" width="50" height="30" as="geometry" />
        </mxCell>
        <mxCell id="kwqhG4PS2v1R5lWYLXFU-37" value="SONG" style="rounded=0;whiteSpace=wrap;html=1;" vertex="1" parent="1">
          <mxGeometry x="980" y="-420" width="120" height="60" as="geometry" />
        </mxCell>
        <mxCell id="kwqhG4PS2v1R5lWYLXFU-38" value="ALBUM" style="rounded=0;whiteSpace=wrap;html=1;" vertex="1" parent="1">
          <mxGeometry x="970" y="-840" width="120" height="60" as="geometry" />
        </mxCell>
        <mxCell id="kwqhG4PS2v1R5lWYLXFU-39" value="album_id" style="ellipse;whiteSpace=wrap;html=1;" vertex="1" parent="1">
          <mxGeometry x="1220" y="-710" width="120" height="80" as="geometry" />
        </mxCell>
        <mxCell id="kwqhG4PS2v1R5lWYLXFU-40" value="format" style="ellipse;whiteSpace=wrap;html=1;" vertex="1" parent="1">
          <mxGeometry x="1215" y="-840" width="120" height="80" as="geometry" />
        </mxCell>
        <mxCell id="kwqhG4PS2v1R5lWYLXFU-41" value="copyright_date" style="ellipse;whiteSpace=wrap;html=1;" vertex="1" parent="1">
          <mxGeometry x="1200" y="-1000" width="120" height="80" as="geometry" />
        </mxCell>
        <mxCell id="kwqhG4PS2v1R5lWYLXFU-42" value="title" style="ellipse;whiteSpace=wrap;html=1;" vertex="1" parent="1">
          <mxGeometry x="1010" y="-1055" width="120" height="80" as="geometry" />
        </mxCell>
        <mxCell id="kwqhG4PS2v1R5lWYLXFU-43" value="&lt;u&gt;&lt;i&gt;id&lt;/i&gt;&lt;/u&gt;" style="ellipse;whiteSpace=wrap;html=1;" vertex="1" parent="1">
          <mxGeometry x="840" y="-1055" width="120" height="80" as="geometry" />
        </mxCell>
        <mxCell id="kwqhG4PS2v1R5lWYLXFU-44" value="ftitle" style="ellipse;whiteSpace=wrap;html=1;" vertex="1" parent="1">
          <mxGeometry x="1180" y="-320" width="120" height="80" as="geometry" />
        </mxCell>
        <mxCell id="kwqhG4PS2v1R5lWYLXFU-45" value="author" style="ellipse;whiteSpace=wrap;html=1;" vertex="1" parent="1">
          <mxGeometry x="870" y="-250" width="120" height="80" as="geometry" />
        </mxCell>
        <mxCell id="kwqhG4PS2v1R5lWYLXFU-46" value="CONTAINS" style="rhombus;whiteSpace=wrap;html=1;" vertex="1" parent="1">
          <mxGeometry x="990" y="-650" width="80" height="80" as="geometry" />
        </mxCell>
        <mxCell id="kwqhG4PS2v1R5lWYLXFU-47" value="" style="endArrow=none;html=1;rounded=0;exitX=0.25;exitY=0;exitDx=0;exitDy=0;" edge="1" parent="1" source="kwqhG4PS2v1R5lWYLXFU-38" target="kwqhG4PS2v1R5lWYLXFU-43">
          <mxGeometry width="50" height="50" relative="1" as="geometry">
            <mxPoint x="790" y="-610" as="sourcePoint" />
            <mxPoint x="840" y="-660" as="targetPoint" />
          </mxGeometry>
        </mxCell>
        <mxCell id="kwqhG4PS2v1R5lWYLXFU-48" value="" style="endArrow=none;html=1;rounded=0;" edge="1" parent="1" source="kwqhG4PS2v1R5lWYLXFU-38" target="kwqhG4PS2v1R5lWYLXFU-42">
          <mxGeometry width="50" height="50" relative="1" as="geometry">
            <mxPoint x="800" y="-600" as="sourcePoint" />
            <mxPoint x="850" y="-650" as="targetPoint" />
          </mxGeometry>
        </mxCell>
        <mxCell id="kwqhG4PS2v1R5lWYLXFU-49" value="" style="endArrow=none;html=1;rounded=0;exitX=1;exitY=0;exitDx=0;exitDy=0;" edge="1" parent="1" source="kwqhG4PS2v1R5lWYLXFU-38" target="kwqhG4PS2v1R5lWYLXFU-41">
          <mxGeometry width="50" height="50" relative="1" as="geometry">
            <mxPoint x="810" y="-590" as="sourcePoint" />
            <mxPoint x="860" y="-640" as="targetPoint" />
          </mxGeometry>
        </mxCell>
        <mxCell id="kwqhG4PS2v1R5lWYLXFU-50" value="" style="endArrow=none;html=1;rounded=0;entryX=0;entryY=0.5;entryDx=0;entryDy=0;exitX=1;exitY=0.5;exitDx=0;exitDy=0;" edge="1" parent="1" source="kwqhG4PS2v1R5lWYLXFU-38" target="kwqhG4PS2v1R5lWYLXFU-40">
          <mxGeometry width="50" height="50" relative="1" as="geometry">
            <mxPoint x="820" y="-580" as="sourcePoint" />
            <mxPoint x="870" y="-630" as="targetPoint" />
          </mxGeometry>
        </mxCell>
        <mxCell id="kwqhG4PS2v1R5lWYLXFU-51" value="" style="endArrow=none;html=1;rounded=0;entryX=1;entryY=1;entryDx=0;entryDy=0;" edge="1" parent="1" source="kwqhG4PS2v1R5lWYLXFU-39" target="kwqhG4PS2v1R5lWYLXFU-38">
          <mxGeometry width="50" height="50" relative="1" as="geometry">
            <mxPoint x="830" y="-570" as="sourcePoint" />
            <mxPoint x="880" y="-620" as="targetPoint" />
          </mxGeometry>
        </mxCell>
        <mxCell id="kwqhG4PS2v1R5lWYLXFU-52" value="" style="endArrow=none;html=1;rounded=0;entryX=0.5;entryY=1;entryDx=0;entryDy=0;" edge="1" parent="1" source="kwqhG4PS2v1R5lWYLXFU-46" target="kwqhG4PS2v1R5lWYLXFU-38">
          <mxGeometry width="50" height="50" relative="1" as="geometry">
            <mxPoint x="840" y="-560" as="sourcePoint" />
            <mxPoint x="890" y="-610" as="targetPoint" />
          </mxGeometry>
        </mxCell>
        <mxCell id="kwqhG4PS2v1R5lWYLXFU-53" value="" style="endArrow=none;html=1;rounded=0;entryX=0.5;entryY=1;entryDx=0;entryDy=0;exitX=0.5;exitY=0;exitDx=0;exitDy=0;" edge="1" parent="1" source="kwqhG4PS2v1R5lWYLXFU-37" target="kwqhG4PS2v1R5lWYLXFU-46">
          <mxGeometry width="50" height="50" relative="1" as="geometry">
            <mxPoint x="850" y="-550" as="sourcePoint" />
            <mxPoint x="900" y="-600" as="targetPoint" />
          </mxGeometry>
        </mxCell>
        <mxCell id="kwqhG4PS2v1R5lWYLXFU-54" value="" style="endArrow=none;html=1;rounded=0;exitX=0;exitY=0;exitDx=0;exitDy=0;" edge="1" parent="1" source="kwqhG4PS2v1R5lWYLXFU-37" target="kwqhG4PS2v1R5lWYLXFU-63">
          <mxGeometry width="50" height="50" relative="1" as="geometry">
            <mxPoint x="655" y="-350" as="sourcePoint" />
            <mxPoint x="705" y="-400" as="targetPoint" />
          </mxGeometry>
        </mxCell>
        <mxCell id="kwqhG4PS2v1R5lWYLXFU-55" value="" style="endArrow=none;html=1;rounded=0;entryX=0;entryY=0.5;entryDx=0;entryDy=0;exitX=1;exitY=1;exitDx=0;exitDy=0;" edge="1" parent="1" source="kwqhG4PS2v1R5lWYLXFU-1" target="kwqhG4PS2v1R5lWYLXFU-63">
          <mxGeometry width="50" height="50" relative="1" as="geometry">
            <mxPoint x="540" y="-400" as="sourcePoint" />
            <mxPoint x="590" y="-450" as="targetPoint" />
          </mxGeometry>
        </mxCell>
        <mxCell id="kwqhG4PS2v1R5lWYLXFU-56" value="" style="endArrow=none;html=1;rounded=0;" edge="1" parent="1" source="kwqhG4PS2v1R5lWYLXFU-62" target="kwqhG4PS2v1R5lWYLXFU-37">
          <mxGeometry width="50" height="50" relative="1" as="geometry">
            <mxPoint x="880" y="-520" as="sourcePoint" />
            <mxPoint x="930" y="-570" as="targetPoint" />
          </mxGeometry>
        </mxCell>
        <mxCell id="kwqhG4PS2v1R5lWYLXFU-57" value="" style="endArrow=none;html=1;rounded=0;" edge="1" parent="1" source="kwqhG4PS2v1R5lWYLXFU-37" target="kwqhG4PS2v1R5lWYLXFU-44">
          <mxGeometry width="50" height="50" relative="1" as="geometry">
            <mxPoint x="890" y="-510" as="sourcePoint" />
            <mxPoint x="940" y="-560" as="targetPoint" />
          </mxGeometry>
        </mxCell>
        <mxCell id="kwqhG4PS2v1R5lWYLXFU-58" value="" style="endArrow=none;html=1;rounded=0;entryX=0.5;entryY=0;entryDx=0;entryDy=0;" edge="1" parent="1" source="kwqhG4PS2v1R5lWYLXFU-37" target="kwqhG4PS2v1R5lWYLXFU-45">
          <mxGeometry width="50" height="50" relative="1" as="geometry">
            <mxPoint x="900" y="-500" as="sourcePoint" />
            <mxPoint x="950" y="-550" as="targetPoint" />
          </mxGeometry>
        </mxCell>
        <mxCell id="kwqhG4PS2v1R5lWYLXFU-59" value="&lt;b&gt;(1,1)&lt;/b&gt;" style="text;html=1;align=center;verticalAlign=middle;resizable=0;points=[];autosize=1;strokeColor=none;fillColor=none;" vertex="1" parent="1">
          <mxGeometry x="1030" y="-520" width="50" height="30" as="geometry" />
        </mxCell>
        <mxCell id="kwqhG4PS2v1R5lWYLXFU-60" value="&lt;b&gt;(1,N)&lt;/b&gt;" style="text;html=1;align=center;verticalAlign=middle;resizable=0;points=[];autosize=1;strokeColor=none;fillColor=none;" vertex="1" parent="1">
          <mxGeometry x="1020" y="-715" width="50" height="30" as="geometry" />
        </mxCell>
        <mxCell id="kwqhG4PS2v1R5lWYLXFU-62" value="&lt;u&gt;id&lt;/u&gt;" style="ellipse;whiteSpace=wrap;html=1;" vertex="1" parent="1">
          <mxGeometry x="1050" y="-230" width="120" height="80" as="geometry" />
        </mxCell>
        <mxCell id="kwqhG4PS2v1R5lWYLXFU-63" value="PERFORMS" style="rhombus;whiteSpace=wrap;html=1;" vertex="1" parent="1">
          <mxGeometry x="630" y="-640" width="80" height="80" as="geometry" />
        </mxCell>
        <mxCell id="kwqhG4PS2v1R5lWYLXFU-64" value="&lt;b&gt;(1,N)&lt;/b&gt;" style="text;html=1;align=center;verticalAlign=middle;resizable=0;points=[];autosize=1;strokeColor=none;fillColor=none;" vertex="1" parent="1">
          <mxGeometry x="500" y="-710" width="50" height="30" as="geometry" />
        </mxCell>
        <mxCell id="kwqhG4PS2v1R5lWYLXFU-65" value="&lt;b&gt;(1,N)&lt;/b&gt;" style="text;html=1;align=center;verticalAlign=middle;resizable=0;points=[];autosize=1;strokeColor=none;fillColor=none;" vertex="1" parent="1">
          <mxGeometry x="840" y="-520" width="50" height="30" as="geometry" />
        </mxCell>
        <mxCell id="kwqhG4PS2v1R5lWYLXFU-66" value="PRODUCES" style="rhombus;whiteSpace=wrap;html=1;" vertex="1" parent="1">
          <mxGeometry x="630" y="-870" width="80" height="80" as="geometry" />
        </mxCell>
        <mxCell id="kwqhG4PS2v1R5lWYLXFU-67" value="" style="endArrow=none;html=1;rounded=0;entryX=0;entryY=0.5;entryDx=0;entryDy=0;" edge="1" parent="1" source="kwqhG4PS2v1R5lWYLXFU-1" target="kwqhG4PS2v1R5lWYLXFU-66">
          <mxGeometry width="50" height="50" relative="1" as="geometry">
            <mxPoint x="690" y="-610" as="sourcePoint" />
            <mxPoint x="740" y="-660" as="targetPoint" />
          </mxGeometry>
        </mxCell>
        <mxCell id="kwqhG4PS2v1R5lWYLXFU-68" value="" style="endArrow=none;html=1;rounded=0;entryX=0;entryY=0.25;entryDx=0;entryDy=0;exitX=1;exitY=0.5;exitDx=0;exitDy=0;" edge="1" parent="1" source="kwqhG4PS2v1R5lWYLXFU-66" target="kwqhG4PS2v1R5lWYLXFU-38">
          <mxGeometry width="50" height="50" relative="1" as="geometry">
            <mxPoint x="700" y="-600" as="sourcePoint" />
            <mxPoint x="750" y="-650" as="targetPoint" />
          </mxGeometry>
        </mxCell>
        <mxCell id="kwqhG4PS2v1R5lWYLXFU-69" value="&lt;b&gt;(1,N)&lt;/b&gt;" style="text;html=1;align=center;verticalAlign=middle;resizable=0;points=[];autosize=1;strokeColor=none;fillColor=none;" vertex="1" parent="1">
          <mxGeometry x="495" y="-855" width="50" height="30" as="geometry" />
        </mxCell>
        <mxCell id="kwqhG4PS2v1R5lWYLXFU-70" value="&lt;b&gt;(1,1)&lt;/b&gt;" style="text;html=1;align=center;verticalAlign=middle;resizable=0;points=[];autosize=1;strokeColor=none;fillColor=none;" vertex="1" parent="1">
          <mxGeometry x="820" y="-860" width="50" height="30" as="geometry" />
        </mxCell>
      </root>
    </mxGraphModel>
  </diagram>
</mxfile>
